name Walk1.mot
datacolumns 19
datarows 30
range 2.28000000 2.42500000
endheader

                time	   L_ground_force_vx	   L_ground_force_vy	   L_ground_force_vz	   L_ground_force_px	   L_ground_force_py	   L_ground_force_pz	   R_ground_force_vx	   R_ground_force_vy	   R_ground_force_vz	   R_ground_force_px	   R_ground_force_py	   R_ground_force_pz	   L_ground_torque_x	   L_ground_torque_y	   L_ground_torque_z	   R_ground_torque_x	   R_ground_torque_y	   R_ground_torque_z	
          2.28000000	          0.17317929	          0.40121657	         -0.00827914	          0.00046559	          0.00000000	          0.00007624	        -23.17756722	        701.14534012	        -41.67004603	          0.16169013	          0.00000000	          0.09038414	          0.00000000	         -0.00023439	          0.00000000	          0.00000000	          7.36658542	          0.00000000	
          2.28500000	          0.15385252	          0.38134653	         -0.01185388	          0.00014510	          0.00000000	          0.00003892	        -20.85760071	        695.45383072	        -41.49564049	          0.16376257	          0.00000000	          0.09042411	          0.00000000	         -0.00024109	          0.00000000	          0.00000000	          7.14610780	          0.00000000	
          2.29000000	          0.12929077	          0.33844437	         -0.01320879	         -0.00007190	          0.00000000	          0.00001191	        -18.55982755	        689.96743188	        -41.42623131	          0.16577701	          0.00000000	          0.09045277	          0.00000000	         -0.00022631	          0.00000000	          0.00000000	          6.91527433	          0.00000000	
          2.29500000	          0.10331445	          0.28416518	         -0.01303301	         -0.00020537	          0.00000000	         -0.00000635	        -16.28631541	        684.69502415	        -41.44783720	          0.16774337	          0.00000000	          0.09046884	          0.00000000	         -0.00019894	          0.00000000	          0.00000000	          6.67529429	          0.00000000	
          2.30000000	          0.07848542	          0.22688296	         -0.01188954	         -0.00027472	          0.00000000	         -0.00001756	        -14.04049188	        679.64466263	        -41.53932858	          0.16967503	          0.00000000	          0.09047212	          0.00000000	         -0.00016565	          0.00000000	          0.00000000	          6.42658301	          0.00000000	
          2.30500000	          0.05635580	          0.17220528	         -0.01021593	         -0.00029747	          0.00000000	         -0.00002336	        -11.82901804	        674.82790412	        -41.67157051	          0.17158583	          0.00000000	          0.09046294	          0.00000000	         -0.00013121	          0.00000000	          0.00000000	          6.16876458	          0.00000000	
          2.31000000	          0.03770743	          0.12352219	         -0.00833472	         -0.00028853	          0.00000000	         -0.00002523	         -9.66188778	        670.26292837	        -41.80974677	          0.17348760	          0.00000000	          0.09044154	          0.00000000	         -0.00009874	          0.00000000	          0.00000000	          5.90088999	          0.00000000	
          2.31500000	          0.02276640	          0.08253356	         -0.00646916	         -0.00025998	          0.00000000	         -0.00002443	         -7.55003419	        665.97496376	        -41.91815734	          0.17538879	          0.00000000	          0.09040773	          0.00000000	         -0.00007011	          0.00000000	          0.00000000	          5.62225657	          0.00000000	
          2.32000000	          0.01138446	          0.04972093	         -0.00476118	         -0.00022111	          0.00000000	         -0.00002199	         -5.50370954	        661.99658891	        -41.96503067	          0.17729445	          0.00000000	          0.09035975	          0.00000000	         -0.00004620	          0.00000000	          0.00000000	          5.33290838	          0.00000000	
          2.32500000	          0.00318506	          0.02474651	         -0.00328934	         -0.00017869	          0.00000000	         -0.00001869	         -3.53130141	        658.37069272	        -41.92538069	          0.17920604	          0.00000000	          0.09029535	          0.00000000	         -0.00002722	          0.00000000	          0.00000000	          5.03343381	          0.00000000	
          2.33000000	         -0.00232495	          0.00677374	         -0.00208532	         -0.00013736	          0.00000000	         -0.00001509	         -1.63899346	        655.15780604	        -41.78234397	          0.18112311	          0.00000000	          0.09021364	          0.00000000	         -0.00001289	          0.00000000	          0.00000000	          4.72461347	          0.00000000	
          2.33500000	         -0.00567454	         -0.00528756	         -0.00114829	         -0.00009999	          0.00000000	         -0.00001159	          0.16929509	        652.43749073	        -41.52844422	          0.18304500	          0.00000000	          0.09011520	          0.00000000	         -0.00000269	          0.00000000	          0.00000000	          4.40715833	          0.00000000	
          2.34000000	         -0.00737378	         -0.01260406	         -0.00045657	         -0.00006812	          0.00000000	         -0.00000843	          1.89346175	        650.30192982	        -41.16555795	          0.18496909	          0.00000000	          0.09000079	          0.00000000	          0.00000407	          0.00000000	          0.00000000	          4.08151567	          0.00000000	
          2.34500000	         -0.00788029	         -0.01629916	          0.00002312	         -0.00004229	          0.00000000	         -0.00000573	          3.53831064	        648.85207911	        -40.70356534	          0.18689005	          0.00000000	          0.08987156	          0.00000000	          0.00000808	          0.00000000	          0.00000000	          3.74790575	          0.00000000	
          2.35000000	         -0.00758187	         -0.01737969	          0.00032891	         -0.00002239	          0.00000000	         -0.00000355	          5.11357949	        648.19097148	        -40.15785369	          0.18879831	          0.00000000	          0.08972957	          0.00000000	          0.00001002	          0.00000000	          0.00000000	          3.40649783	          0.00000000	
          2.35500000	         -0.00679086	         -0.01669809	          0.00049900	         -0.00000785	          0.00000000	         -0.00000187	          6.63380298	        648.41425967	        -39.54674226	          0.19068094	          0.00000000	          0.08957765	          0.00000000	          0.00001046	          0.00000000	          0.00000000	          3.05692035	          0.00000000	
          2.36000000	         -0.00574653	         -0.01494038	          0.00056860	          0.00000209	          0.00000000	         -0.00000065	          8.11807282	        649.60186413	        -38.88990068	          0.19252376	          0.00000000	          0.08941885	          0.00000000	          0.00000992	          0.00000000	          0.00000000	          2.69783737	          0.00000000	
          2.36500000	         -0.00462234	         -0.01263159	          0.00056827	          0.00000830	          0.00000000	          0.00000019	          9.58935807	        651.80624235	        -38.20684428	          0.19430948	          0.00000000	          0.08925530	          0.00000000	          0.00000879	          0.00000000	          0.00000000	          2.32749463	          0.00000000	
          2.37000000	         -0.00353585	         -0.01015200	          0.00052312	          0.00001163	          0.00000000	          0.00000071	         11.07342911	        655.04344154	        -37.51440088	          0.19601753	          0.00000000	          0.08908752	          0.00000000	          0.00000737	          0.00000000	          0.00000000	          1.94413505	          0.00000000	
          2.37500000	         -0.00255946	         -0.00775898	          0.00045279	          0.00001284	          0.00000000	          0.00000099	         12.59688428	        659.29404415	        -36.82500184	          0.19763131	          0.00000000	          0.08891581	          0.00000000	          0.00000588	          0.00000000	          0.00000000	          1.54586316	          0.00000000	
          2.38000000	         -0.00173090	         -0.00561075	          0.00037187	          0.00001260	          0.00000000	          0.00000109	         14.18538418	        664.50520554	        -36.14819293	          0.19914191	          0.00000000	          0.08874137	          0.00000000	          0.00000445	          0.00000000	          0.00000000	          1.13103969	          0.00000000	
          2.38500000	         -0.00106266	         -0.00378939	          0.00029058	          0.00001146	          0.00000000	          0.00000107	         15.86259512	        670.59090673	        -35.49197249	          0.20054590	          0.00000000	          0.08856586	          0.00000000	          0.00000319	          0.00000000	          0.00000000	          0.69846880	          0.00000000	
          2.39000000	         -0.00055009	         -0.00232169	          0.00021546	          0.00000981	          0.00000000	          0.00000097	         17.64910436	        677.43604277	        -34.86223056	          0.20184290	          0.00000000	          0.08839148	          0.00000000	          0.00000213	          0.00000000	          0.00000000	          0.24747956	          0.00000000	
          2.39500000	         -0.00017789	         -0.00119686	          0.00015025	          0.00000798	          0.00000000	          0.00000083	         19.56174711	        684.90227557	        -34.26301028	          0.20303333	          0.00000000	          0.08822035	          0.00000000	          0.00000128	          0.00000000	          0.00000000	         -0.22235455	          0.00000000	
          2.40000000	          0.00007487	         -0.00038088	          0.00009655	          0.00000618	          0.00000000	          0.00000067	         21.61355840	        692.83741993	        -33.69666734	          0.20411896	          0.00000000	          0.08805398	          0.00000000	          0.00000063	          0.00000000	          0.00000000	         -0.71164529	          0.00000000	
          2.40500000	          0.00023104	          0.00017252	          0.00005448	          0.00000453	          0.00000000	          0.00000052	         23.81366254	        701.08599900	        -33.16420820	          0.20510408	          0.00000000	          0.08789380	          0.00000000	          0.00000017	          0.00000000	          0.00000000	         -1.22116576	          0.00000000	
          2.41000000	          0.00031291	          0.00051376	          0.00002319	          0.00000312	          0.00000000	          0.00000038	         26.16774719	        709.50037251	        -32.66610677	          0.20599607	          0.00000000	          0.08774092	          0.00000000	         -0.00000014	          0.00000000	          0.00000000	         -1.75145282	          0.00000000	
          2.41500000	          0.00034067	          0.00069196	          0.00000129	          0.00000196	          0.00000000	          0.00000026	         28.67781839	        717.95030919	        -32.20264982	          0.20680605	          0.00000000	          0.08759559	          0.00000000	         -0.00000033	          0.00000000	          0.00000000	         -2.30277037	          0.00000000	
          2.42000000	          0.00033153	          0.00075151	         -0.00001286	          0.00000107	          0.00000000	          0.00000017	         31.34138563	        726.32758148	        -31.77290827	          0.20754571	          0.00000000	          0.08745825	          0.00000000	         -0.00000043	          0.00000000	          0.00000000	         -2.87498173	          0.00000000	
          2.42500000	          0.00029944	          0.00073026	         -0.00002091	          0.00000041	          0.00000000	          0.00000009	         34.15168008	        734.54674307	        -31.37454559	          0.20822448	          0.00000000	          0.08733020	          0.00000000	         -0.00000045	          0.00000000	          0.00000000	         -3.46740745	          0.00000000	
